<?xml version="1.0" encoding="UTF-8"?>
<!DOCTYPE svg PUBLIC "-//W3C//DTD SVG 1.1//EN" "http://www.w3.org/Graphics/SVG/1.1/DTD/svg11.dtd">
<!-- Creator: CorelDRAW 2017 -->
<svg xmlns="http://www.w3.org/2000/svg" xml:space="preserve" width="109.361mm" height="91.7222mm" version="1.1" style="shape-rendering:geometricPrecision; text-rendering:geometricPrecision; image-rendering:optimizeQuality; fill-rule:evenodd; clip-rule:evenodd"
viewBox="0 0 109.3612 91.7223"
 xmlns:xlink="http://www.w3.org/1999/xlink">
 <defs>
  <style type="text/css">
   <![CDATA[
    .fil0 {fill:#222}
   ]]>
  </style>
 </defs>
 <g id="Слой_x0020_1">
  <metadata id="CorelCorpID_0Corel-Layer"/>
  <path class="fil0" d="M6.7028 36.3359l17.9917 0 0 -16.5805 -1.7639 0c-0.7762,0 -1.4111,-0.6349 -1.4111,-1.4111l0 -0.3528c0,-0.7762 0.6349,-1.4111 1.4111,-1.4111l30.6916 0 0 -15.4991c0,-0.5948 0.4762,-1.0813 1.0583,-1.0813l0.0001 0c0.5821,0 1.0583,0.4865 1.0583,1.0813l0 3.8577 8.8197 0c0.776,0 1.411,0.6348 1.411,1.411l0 3.8807c0,0.7762 -0.635,1.411 -1.411,1.411l-8.8197 0 0 4.9387 30.6917 0c0.7762,0 1.4111,0.6349 1.4111,1.4111l0 0.3528c0,0.7762 -0.6349,1.4111 -1.4111,1.4111l-1.7639 0 0 16.5805 17.9917 0c0.7762,0 1.4111,0.6349 1.4111,1.4111l0 0.3528c0,0.7762 -0.6349,1.4111 -1.4111,1.4111l-1.7639 0 0 14.1112 1.7638 0c0.7762,0 1.4112,0.635 1.4112,1.4112l0 0.3526c0,0.7762 -0.635,1.4112 -1.4112,1.4112l-1.7638 0 0 31.75 7.0557 0c0.776,0 1.4109,0.6349 1.4109,1.411l0 0.3531c0,0.7761 -0.6349,1.411 -1.4109,1.411l-106.5392 0c-0.7762,0 -1.4111,-0.6349 -1.4111,-1.411l0 -0.3531c0,-0.7761 0.6349,-1.411 1.4111,-1.411l7.0556 0 0 -31.75 -1.764 0c-0.7761,0 -1.411,-0.6349 -1.411,-1.411l0 -0.353c0,-0.7761 0.6349,-1.411 1.411,-1.411l1.764 0 0 -14.1112 -1.7639 0c-0.7762,0 -1.4111,-0.6349 -1.4111,-1.4111l0 -0.3528c0,-0.7762 0.6349,-1.4111 1.4111,-1.4111zm33.5138 52.2112l0 -26.4583c0,-7.955 6.5087,-14.4638 14.4637,-14.4638l0.0004 0c7.955,0 14.4637,6.5088 14.4637,14.4638l0 26.4583 -28.9278 0zm31.75 0l0 -26.458c0,-9.5077 -7.7787,-17.2863 -17.2861,-17.2863l0 0c-9.5074,0 -17.2861,7.7786 -17.2861,17.2863l0 26.458 -2.1166 0 0 -49.0362 38.8055 0 0 49.0362 -2.1167 0zm9.525 0l0 -15.1694c0,-3.2986 2.6987,-5.9972 5.9972,-5.9972l0.0001 0c3.2985,0 5.9972,2.6986 5.9972,5.9972l0 15.1694 -11.9945 0zm14.8167 0l0 -15.1695c0,-4.8507 -3.9687,-8.8193 -8.8194,-8.8193l0 0c-4.8508,0 -8.8195,3.9686 -8.8195,8.8193l0 15.1695 -1.7638 0 0 -31.75 21.1666 0 0 31.75 -1.7639 0zm-80.4335 0l0 -15.1694c0,-3.2986 2.6987,-5.9972 5.9972,-5.9972l0.0001 0c3.2985,0 5.9972,2.6986 5.9972,5.9972l0 15.1694 -11.9945 0zm14.8167 0l0 -15.1695c0,-4.8507 -3.9687,-8.8193 -8.8194,-8.8193l0 0c-4.8508,0 -8.8195,3.9686 -8.8195,8.8193l0 15.1695 -1.7638 0 0 -31.75 21.1667 0 0 31.75 -1.764 0zm40.9222 -62.4418l0.0002 0c0.7761,0 1.411,0.6349 1.411,1.4109l0 8.8196 8.8195 0 0 -16.5805 -54.3278 0 0 16.5805 8.8194 0 0 -8.8196c0,-0.776 0.6349,-1.4109 1.411,-1.4109l0.0002 0c0.7761,0 1.411,0.6349 1.411,1.4109l0 8.8196 5.6445 0 0 -8.8196c0,-0.776 0.6349,-1.4109 1.411,-1.4109l0.0002 0c0.7761,0 1.411,0.6349 1.411,1.4109l0 8.8196 5.6445 0 0 -8.8196c0,-0.776 0.6349,-1.4109 1.411,-1.4109l0.0002 0c0.7761,0 1.411,0.6349 1.411,1.4109l0 8.8196 5.6444 0 0 -8.8196c0,-0.776 0.6349,-1.4109 1.411,-1.4109l0.0002 0c0.7761,0 1.411,0.6349 1.411,1.4109l0 8.8196 5.6445 0 0 -8.8196c0,-0.776 0.6349,-1.4109 1.411,-1.4109zm-60.325 27.5167l2.8222 0 0 -4.5863c0,-0.7761 0.6349,-1.411 1.411,-1.411l0.0002 0c0.7761,0 1.411,0.6349 1.411,1.411l0 4.5863 3.5278 0 0 -4.5863c0,-0.7761 0.6349,-1.411 1.411,-1.411l0.0002 0c0.7761,0 1.411,0.6349 1.411,1.411l0 4.5863 3.5278 0 0 -4.5863c0,-0.7761 0.6349,-1.411 1.411,-1.411l0.0002 0c0.7761,0 1.411,0.6349 1.411,1.411l0 4.5863 2.8223 0 0 -14.1112 -21.1667 0 0 14.1112zm86.7834 -14.1112l-21.1666 0 0 14.1112 2.8222 0 0 -4.5863c0,-0.7761 0.6349,-1.411 1.411,-1.411l0.0002 0c0.7761,0 1.411,0.6349 1.411,1.411l0 4.5863 3.5278 0 0 -4.5863c0,-0.7761 0.6349,-1.411 1.411,-1.411l0.0002 0c0.7761,0 1.411,0.6349 1.411,1.411l0 4.5863 3.5278 0 0 -4.5863c0,-0.7761 0.6349,-1.411 1.411,-1.411l0.0002 0c0.7761,0 1.411,0.6349 1.411,1.411l0 4.5863 2.8222 0 0 -14.1112z"/>
 </g>
</svg>