<?xml version="1.0" encoding="UTF-8"?>
<!DOCTYPE svg PUBLIC "-//W3C//DTD SVG 1.1//EN" "http://www.w3.org/Graphics/SVG/1.1/DTD/svg11.dtd">
<!-- Creator: CorelDRAW 2017 -->
<svg xmlns="http://www.w3.org/2000/svg" xml:space="preserve" width="205.8mm" height="205.8mm" version="1.1" style="shape-rendering:geometricPrecision; text-rendering:geometricPrecision; image-rendering:optimizeQuality; fill-rule:evenodd; clip-rule:evenodd"
viewBox="0 0 205.8 205.7999"
 xmlns:xlink="http://www.w3.org/1999/xlink">
 <defs>
  <style type="text/css">
   <![CDATA[
    .fil0 {fill:black}
   ]]>
  </style>
 </defs>
 <g id="Слой_x0020_1">
  <metadata id="CorelCorpID_0Corel-Layer"/>
  <g id="_1802930087504">
   <g>
    <path class="fil0" d="M25.7461 154.3289c-14.238,0 -25.767,11.55 -25.746,25.746 0,14.196 11.529,25.746 25.746,25.704 14.196,0.021 25.725,-11.508 25.704,-25.704 0.021,-14.238 -11.508,-25.767 -25.704,-25.746z"/>
    <path class="fil0" d="M25.7251 0c-14.196,0 -25.725,11.529 -25.725,25.725 0,14.196 11.529,25.725 25.725,25.725 70.917,0 128.6249,57.708 128.6249,128.6249 0,14.196 11.529,25.725 25.725,25.725 14.196,0 25.725,-11.529 25.725,-25.725 0,-99.309 -80.787,-180.0749 -180.0749,-180.0749z"/>
    <path class="fil0" d="M25.7251 77.175c-14.196,0 -25.725,11.529 -25.725,25.725 0,14.196 11.529,25.725 25.725,25.725 28.371,0 51.45,23.079 51.45,51.45 0,14.196 11.529,25.725 25.725,25.725 14.196,0 25.725,-11.529 25.725,-25.725 0,-56.742 -46.158,-102.9 -102.9,-102.9z"/>
   </g>
   <g>
   </g>
   <g>
   </g>
   <g>
   </g>
   <g>
   </g>
   <g>
   </g>
   <g>
   </g>
   <g>
   </g>
   <g>
   </g>
   <g>
   </g>
   <g>
   </g>
   <g>
   </g>
   <g>
   </g>
   <g>
   </g>
   <g>
   </g>
   <g>
   </g>
  </g>
 </g>
</svg>
