<?xml version="1.0" encoding="UTF-8"?>
<!DOCTYPE svg PUBLIC "-//W3C//DTD SVG 1.1//EN" "http://www.w3.org/Graphics/SVG/1.1/DTD/svg11.dtd">
<!-- Creator: CorelDRAW 2017 -->
<svg xmlns="http://www.w3.org/2000/svg" xml:space="preserve" width="205.8mm" height="205.8mm" version="1.1" style="shape-rendering:geometricPrecision; text-rendering:geometricPrecision; image-rendering:optimizeQuality; fill-rule:evenodd; clip-rule:evenodd"
viewBox="0 0 205.8 205.8"
 xmlns:xlink="http://www.w3.org/1999/xlink">
 <defs>
  <style type="text/css">
   <![CDATA[
    .fil0 {fill:black}
   ]]>
  </style>
 </defs>
 <g id="Слой_x0020_1">
  <metadata id="CorelCorpID_0Corel-Layer"/>
  <g id="_1802922680480">
   <path class="fil0" d="M205.8 187.089c0,18.711 -18.711,18.711 -18.711,18.711l-53.529 -53.529c-13.881,10.08 -30.912,16.107 -49.371,16.107 -46.494,0 -84.189,-37.695 -84.189,-84.189 0,-46.494 37.695,-84.189 84.189,-84.189 46.494,0 84.189,37.695 84.189,84.189 0,18.48 -6.027,35.49 -16.107,49.371l53.529 53.529zm-121.611 -168.378c-36.162,0 -65.478,29.316 -65.478,65.478 0,36.162 29.316,65.478 65.478,65.478 36.162,0 65.478,-29.316 65.478,-65.478 0,-36.162 -29.316,-65.478 -65.478,-65.478z"/>
  </g>
 </g>
</svg>
