<?xml version="1.0" encoding="UTF-8"?>
<!DOCTYPE svg PUBLIC "-//W3C//DTD SVG 1.1//EN" "http://www.w3.org/Graphics/SVG/1.1/DTD/svg11.dtd">
<!-- Creator: CorelDRAW 2017 -->
<svg xmlns="http://www.w3.org/2000/svg" xml:space="preserve" width="6.3503mm" height="5.2919mm" version="1.1" style="shape-rendering:geometricPrecision; text-rendering:geometricPrecision; image-rendering:optimizeQuality; fill-rule:evenodd; clip-rule:evenodd"
viewBox="0 0 6.3504 5.292"
 xmlns:xlink="http://www.w3.org/1999/xlink">
 <defs>
  <style type="text/css">
   <![CDATA[
    .fil0 {fill:black}
   ]]>
  </style>
 </defs>
 <g id="Слой_x0020_1">
  <metadata id="CorelCorpID_0Corel-Layer"/>
  <path id="telegram-1" class="fil0" d="M4.8643 5.2335c0.0852,0.0603 0.195,0.0754 0.2929,0.0384 0.0979,-0.0373 0.1699,-0.1209 0.1916,-0.2223 0.2299,-1.0806 0.7877,-3.8157 0.997,-4.7986 0.0159,-0.0741 -0.0106,-0.1511 -0.0688,-0.2006 -0.0582,-0.0495 -0.1389,-0.0638 -0.2109,-0.037 -1.1094,0.4106 -4.5261,1.6925 -5.9225,2.2093 -0.0886,0.0328 -0.1463,0.118 -0.1434,0.2114 0.0032,0.0937 0.0661,0.1749 0.1569,0.2021 0.6263,0.1873 1.4483,0.4479 1.4483,0.4479 0,0 0.3842,1.1602 0.5845,1.7502 0.0251,0.0741 0.0831,0.1323 0.1595,0.1524 0.0762,0.0198 0.1577,-0.0011 0.2146,-0.0548 0.3217,-0.3037 0.8192,-0.7734 0.8192,-0.7734 0,0 0.9451,0.6929 1.4811,1.0747l-0.0001 0.0002zm-2.9131 -2.2957l0.4442 1.4653 0.0987 -0.9279c0,0 1.7164,-1.5481 2.6948,-2.4305 0.0286,-0.0259 0.0325,-0.0693 0.0087,-0.0997 -0.0235,-0.0304 -0.0669,-0.0376 -0.0995,-0.0169 -1.134,0.7242 -3.147,2.0098 -3.147,2.0098l0.0001 -0.0001z"/>
 </g>
</svg>
