<?xml version="1.0" encoding="UTF-8"?>
<!DOCTYPE svg PUBLIC "-//W3C//DTD SVG 1.1//EN" "http://www.w3.org/Graphics/SVG/1.1/DTD/svg11.dtd">
<!-- Creator: CorelDRAW 2017 -->
<svg xmlns="http://www.w3.org/2000/svg" xml:space="preserve" width="205.817mm" height="116.478mm" version="1.1" style="shape-rendering:geometricPrecision; text-rendering:geometricPrecision; image-rendering:optimizeQuality; fill-rule:evenodd; clip-rule:evenodd"
viewBox="0 0 205.78 116.4576"
 xmlns:xlink="http://www.w3.org/1999/xlink">
 <defs>
  <style type="text/css">
   <![CDATA[
    .fil0 {fill:black}
   ]]>
  </style>
 </defs>
 <g id="Слой_x0020_1">
  <metadata id="CorelCorpID_0Corel-Layer"/>
  <g id="_1802981000816">
   <g>
    <path class="fil0" d="M197.2655 94.3361c-6.1309,-7.3487 -13.3326,-13.6266 -20.1564,-20.2824 -6.1519,-6.0049 -6.5508,-9.4903 -1.5957,-16.4191 5.396,-7.5586 11.212,-14.8233 16.65,-22.361 5.0811,-7.0337 10.2882,-14.0465 12.9547,-22.466 1.7007,-5.354 0.189,-7.7266 -5.2911,-8.6714 -0.9448,-0.168 -1.9317,-0.168 -2.8975,-0.168l-32.6072 -0.042c-4.0103,-0.063 -6.2359,1.7007 -7.6636,5.2491 -1.9107,4.8081 -3.8843,9.6163 -6.1729,14.2565 -5.1861,10.5191 -10.96,20.7023 -19.0856,29.3108 -1.7847,1.8897 -3.7583,4.3042 -6.7608,3.3174 -3.7373,-1.3648 -4.8501,-7.5377 -4.7871,-9.6163l-0.042 -37.6253c-0.7349,-5.375 -1.9107,-7.7686 -7.2647,-8.8184l-33.8669 0c-4.5142,0 -6.7818,1.7427 -9.1964,4.5772 -1.3858,1.6377 -1.8057,2.6875 1.0498,3.2334 5.627,1.0708 8.7974,4.7032 9.6373,10.3302 1.3438,9.0074 1.2598,18.0568 0.4829,27.0852 -0.231,2.6455 -0.6719,5.2701 -1.7217,7.7476 -1.6377,3.8843 -4.2832,4.6612 -7.7476,2.2886 -3.1494,-2.1626 -5.354,-5.2071 -7.5167,-8.2515 -8.1255,-11.4849 -14.5924,-23.8517 -19.8834,-36.8484 -1.5327,-3.7583 -4.1573,-6.0259 -8.1465,-6.0889 -9.7843,-0.147 -19.5685,-0.189 -29.3528,0 -5.8789,0.105 -7.6426,2.9605 -5.2491,8.2935 10.6451,23.7048 22.508,46.7376 37.9822,67.7129 7.9576,10.7711 17.0699,20.2824 28.8698,27.0222 13.3536,7.6426 27.736,9.9312 42.8953,9.2383 7.0967,-0.3359 9.2174,-2.1836 9.5533,-9.2383 0.231,-4.8291 0.7769,-9.6373 3.1494,-13.9835 2.3516,-4.2622 5.8789,-5.0811 9.9732,-2.4146 2.0366,1.3228 3.7583,3.0235 5.396,4.8081 3.9893,4.3672 7.8316,8.8604 11.9889,13.0807 5.2071,5.2911 11.359,8.4195 19.0856,7.7686l29.9616 0c4.8291,-0.3149 7.3277,-6.2359 4.5562,-11.6319 -1.9107,-3.7793 -4.4722,-7.1387 -7.1807,-10.3931z"/>
   </g>
   <g>
   </g>
   <g>
   </g>
   <g>
   </g>
   <g>
   </g>
   <g>
   </g>
   <g>
   </g>
   <g>
   </g>
   <g>
   </g>
   <g>
   </g>
   <g>
   </g>
   <g>
   </g>
   <g>
   </g>
   <g>
   </g>
   <g>
   </g>
   <g>
   </g>
  </g>
 </g>
</svg>
